<mxfile host="app.diagrams.net" modified="2020-11-20T08:27:09.171Z" agent="5.0 (Windows NT 10.0; Win64; x64) AppleWebKit/537.36 (KHTML, like Gecko) Chrome/87.0.4280.66 Safari/537.36" etag="HyGZV7IgMbqYOXlobeFB" version="13.10.0" type="github">
  <diagram id="fH02EhWVe4zG2VkzPRTq" name="Page-1">
    <mxGraphModel dx="885" dy="732" grid="1" gridSize="10" guides="1" tooltips="1" connect="1" arrows="1" fold="1" page="1" pageScale="1" pageWidth="827" pageHeight="1169" math="0" shadow="0">
      <root>
        <mxCell id="0" />
        <mxCell id="1" parent="0" />
        <mxCell id="eLBkmYkiiRd03wH__Cpo-6" style="edgeStyle=orthogonalEdgeStyle;rounded=0;orthogonalLoop=1;jettySize=auto;html=1;" edge="1" parent="1" source="eLBkmYkiiRd03wH__Cpo-1" target="eLBkmYkiiRd03wH__Cpo-2">
          <mxGeometry relative="1" as="geometry" />
        </mxCell>
        <mxCell id="eLBkmYkiiRd03wH__Cpo-1" value="" style="ellipse;fillColor=#000000;strokeColor=none;" vertex="1" parent="1">
          <mxGeometry x="60" y="75" width="30" height="30" as="geometry" />
        </mxCell>
        <mxCell id="eLBkmYkiiRd03wH__Cpo-5" style="edgeStyle=orthogonalEdgeStyle;rounded=0;orthogonalLoop=1;jettySize=auto;html=1;" edge="1" parent="1" source="eLBkmYkiiRd03wH__Cpo-2" target="eLBkmYkiiRd03wH__Cpo-4">
          <mxGeometry relative="1" as="geometry" />
        </mxCell>
        <mxCell id="eLBkmYkiiRd03wH__Cpo-2" value="PO stellt die Agenda &lt;br&gt;des Meetings vor" style="html=1;align=center;verticalAlign=top;rounded=1;absoluteArcSize=1;arcSize=10;dashed=0;" vertex="1" parent="1">
          <mxGeometry x="170" y="70" width="140" height="40" as="geometry" />
        </mxCell>
        <mxCell id="eLBkmYkiiRd03wH__Cpo-3" value="Legende&lt;br&gt;PO=Product Owner" style="text;html=1;align=center;verticalAlign=middle;resizable=0;points=[];autosize=1;" vertex="1" parent="1">
          <mxGeometry y="25" width="120" height="30" as="geometry" />
        </mxCell>
        <mxCell id="eLBkmYkiiRd03wH__Cpo-4" value="PO stellt das &lt;br&gt;Sprintziel vor" style="html=1;align=center;verticalAlign=top;rounded=1;absoluteArcSize=1;arcSize=10;dashed=0;" vertex="1" parent="1">
          <mxGeometry x="360" y="70" width="140" height="40" as="geometry" />
        </mxCell>
        <mxCell id="eLBkmYkiiRd03wH__Cpo-7" value="PO gibt einen Überblick&lt;br&gt;über den Sprint&amp;nbsp;" style="html=1;align=center;verticalAlign=top;rounded=1;absoluteArcSize=1;arcSize=10;dashed=0;" vertex="1" parent="1">
          <mxGeometry x="360" y="150" width="140" height="40" as="geometry" />
        </mxCell>
      </root>
    </mxGraphModel>
  </diagram>
</mxfile>
